<svg width="718" height="713" viewBox="0 0 718 713" fill="none" xmlns="http://www.w3.org/2000/svg">
<g clip-path="url(#clip0_619_55159)">
<rect width="718" height="713" transform="matrix(-1 0 0 1 718 0)" fill="#121180"/>
<path opacity="0.6" fill-rule="evenodd" clip-rule="evenodd" d="M647.102 -1H646.103V71H575.202V-1H574.203V71H503.302V-1H502.303V71H431.402V-1H430.403V71H359.502V-1H358.503V71H287.602V-1H286.603V71H215.701V-1H214.702V71H143.801V-1H142.802V71H71.9005V-1H70.9019V71H0V72H70.9019V143H-1V144H70.9019V215H-1V216H70.9019V287H-1V288H70.9019V358H-1V359H70.9019V430H-1V431H70.9019V502H-1V503H70.9019V574H-1V575H70.9019V718H71.9005V575H142.802V718H143.801V575H214.702V718H215.701V575H286.603V718H287.602V575H358.503V718H359.502V575H430.403V718H431.402V575H502.303V718H503.302V575H574.203V718H575.202V575H646.103V718H647.102V575H718V574H647.102V503H718V502H647.102V431H718V430H647.102V359H718V358H647.102V288H718V287H647.102V216H718V215H647.102V144H718V143H647.102V72H718V71H647.102V-1ZM646.103 574H575.202V503H646.103V574ZM574.203 574H503.302V503H574.203V574ZM502.303 574H431.402V503H502.303V574ZM430.403 574H359.502V503H430.403V574ZM358.503 574H287.602V503H358.503V574ZM286.603 574H215.701V503H286.603V574ZM214.702 574H143.801V503H214.702V574ZM142.802 574H71.9005V503H142.802V574ZM71.9005 431V502H142.802V431H71.9005ZM143.801 431V502H214.702V431H143.801ZM215.701 431V502H286.603V431H215.701ZM287.602 431V502H358.503V431H287.602ZM359.502 431V502H430.403V431H359.502ZM431.402 431V502H502.303V431H431.402ZM503.302 431V502H574.203V431H503.302ZM575.202 431V502H646.103V431H575.202ZM646.103 430H575.202V359H646.103V430ZM574.203 430H503.302V359H574.203V430ZM502.303 430H431.402V359H502.303V430ZM430.403 430H359.502V359H430.403V430ZM358.503 430H287.602V359H358.503V430ZM286.603 430H215.701V359H286.603V430ZM214.702 430H143.801V359H214.702V430ZM142.802 430H71.9005V359H142.802V430ZM71.9005 288V358H142.802V288H71.9005ZM143.801 288V358H214.702V288H143.801ZM215.701 288V358H286.603V288H215.701ZM287.602 288V358H358.503V288H287.602ZM359.502 288V358H430.403V288H359.502ZM431.402 288V358H502.303V288H431.402ZM503.302 288V358H574.203V288H503.302ZM575.202 288V358H646.103V288H575.202ZM646.103 287H575.202V216H646.103V287ZM574.203 287H503.302V216H574.203V287ZM502.303 287H431.402V216H502.303V287ZM430.403 287H359.502V216H430.403V287ZM358.503 287H287.602V216H358.503V287ZM286.603 287H215.701V216H286.603V287ZM214.702 287H143.801V216H214.702V287ZM142.802 287H71.9005V216H142.802V287ZM71.9005 144V215H142.802V144H71.9005ZM143.801 144V215H214.702V144H143.801ZM215.701 144V215H286.603V144H215.701ZM287.602 144V215H358.503V144H287.602ZM359.502 144V215H430.403V144H359.502ZM431.402 144V215H502.303V144H431.402ZM503.302 144V215H574.203V144H503.302ZM575.202 144V215H646.103V144H575.202ZM646.103 143H575.202V72H646.103V143ZM574.203 143H503.302V72H574.203V143ZM502.303 143H431.402V72H502.303V143ZM430.403 143H359.502V72H430.403V143ZM358.503 143H287.602V72H358.503V143ZM286.603 143H215.701V72H286.603V143ZM214.702 143H143.801V72H214.702V143ZM142.802 143H71.9005V72H142.802V143Z" fill="url(#paint0_linear_619_55159)"/>
<rect width="284" height="701" transform="matrix(-1 0 0 1 283 0)" fill="url(#paint1_linear_619_55159)"/>
<g opacity="0.1">
<rect width="145.798" height="0.998611" transform="matrix(-1 0 0 1 503.7 429.899)" fill="url(#paint2_linear_619_55159)"/>
<rect width="145.797" height="0.998613" transform="matrix(0 -1 -1 0 431.301 503.297)" fill="url(#paint3_linear_619_55159)"/>
</g>
<g opacity="0.25">
<rect width="145.798" height="0.998611" transform="matrix(-1 0 0 1 575.7 287)" fill="url(#paint4_linear_619_55159)"/>
<rect width="145.797" height="0.998613" transform="matrix(0 -1 -1 0 503.3 360.397)" fill="url(#paint5_linear_619_55159)"/>
</g>
<g opacity="0.4">
<rect width="145.798" height="0.998611" transform="matrix(-1 0 0 1 503.9 142.899)" fill="url(#paint6_linear_619_55159)"/>
<rect width="145.797" height="0.998613" transform="matrix(0 -1 -1 0 431.5 216.297)" fill="url(#paint7_linear_619_55159)"/>
</g>
<g opacity="0.7">
<path d="M717 -1.33514e-05C685.938 -1.33514e-05 646 -1.33514e-05 646 -1.33514e-05C646 39.2122 646 38.6062 646 71C685.212 71 717 39.2122 717 -1.33514e-05Z" fill="#361793"/>
<path d="M575 359C606.062 359 646 359 646 359C646 398.212 646 397.606 646 430C606.788 430 575 398.212 575 359Z" fill="#8C4BFF"/>
<path fill-rule="evenodd" clip-rule="evenodd" d="M575 143H610.5C590.894 143 575 127.106 575 107.5V143ZM610.5 72H575V107.5C575 87.8939 590.894 72 610.5 72ZM646 107.5V72H610.5C630.106 72 646 87.8939 646 107.5ZM646 107.5V143H610.5C630.106 143 646 127.106 646 107.5ZM610.501 93.2996C618.343 93.2996 624.701 99.6571 624.701 107.5C624.701 115.342 618.343 121.7 610.501 121.7C602.658 121.7 596.301 115.342 596.301 107.5C596.301 99.6571 602.658 93.2996 610.501 93.2996Z" fill="#4F25B7"/>
<rect x="647" y="144" width="71" height="71" fill="#4F25B7"/>
<path fill-rule="evenodd" clip-rule="evenodd" d="M646 287H575V251.5H610.5V216H646V287Z" fill="#6C36DB"/>
<path d="M647 288H718L647 359V288Z" fill="#6C36DB"/>
</g>
</g>
<defs>
<linearGradient id="paint0_linear_619_55159" x1="-1.9999" y1="-1" x2="-1.99996" y2="612.5" gradientUnits="userSpaceOnUse">
<stop stop-color="#2D2194" stop-opacity="0"/>
<stop offset="0.307292" stop-color="#483BBA"/>
<stop offset="0.601696" stop-color="#2A2394"/>
<stop offset="1" stop-color="#0C0B6F" stop-opacity="0"/>
</linearGradient>
<linearGradient id="paint1_linear_619_55159" x1="228.5" y1="338.5" x2="-1.6729e-05" y2="338.5" gradientUnits="userSpaceOnUse">
<stop stop-color="#121180"/>
<stop offset="1" stop-color="#121180" stop-opacity="0"/>
</linearGradient>
<linearGradient id="paint2_linear_619_55159" x1="145.797" y1="1.00042" x2="2.99582" y2="0.00180379" gradientUnits="userSpaceOnUse">
<stop stop-color="#100F79"/>
<stop offset="0.523026" stop-color="#8C4BFF"/>
<stop offset="1" stop-color="#110F79"/>
</linearGradient>
<linearGradient id="paint3_linear_619_55159" x1="145.797" y1="1.00042" x2="2.99582" y2="0.00181137" gradientUnits="userSpaceOnUse">
<stop stop-color="#100F79"/>
<stop offset="0.523026" stop-color="#8C4BFF"/>
<stop offset="1" stop-color="#110F79"/>
</linearGradient>
<linearGradient id="paint4_linear_619_55159" x1="145.797" y1="1.00042" x2="2.99582" y2="0.00180379" gradientUnits="userSpaceOnUse">
<stop stop-color="#100F79"/>
<stop offset="0.523026" stop-color="#8C4BFF"/>
<stop offset="1" stop-color="#110F79"/>
</linearGradient>
<linearGradient id="paint5_linear_619_55159" x1="145.797" y1="1.00042" x2="2.99582" y2="0.00181137" gradientUnits="userSpaceOnUse">
<stop stop-color="#100F79"/>
<stop offset="0.523026" stop-color="#8C4BFF"/>
<stop offset="1" stop-color="#110F79"/>
</linearGradient>
<linearGradient id="paint6_linear_619_55159" x1="145.797" y1="1.00042" x2="2.99582" y2="0.00180379" gradientUnits="userSpaceOnUse">
<stop stop-color="#100F79"/>
<stop offset="0.523026" stop-color="#8C4BFF"/>
<stop offset="1" stop-color="#110F79"/>
</linearGradient>
<linearGradient id="paint7_linear_619_55159" x1="145.797" y1="1.00042" x2="2.99582" y2="0.00181137" gradientUnits="userSpaceOnUse">
<stop stop-color="#100F79"/>
<stop offset="0.523026" stop-color="#8C4BFF"/>
<stop offset="1" stop-color="#110F79"/>
</linearGradient>
<clipPath id="clip0_619_55159">
<rect width="718" height="713" fill="white" transform="matrix(-1 0 0 1 718 0)"/>
</clipPath>
</defs>
</svg>
