<svg width="718" height="713" viewBox="0 0 718 713" fill="none" xmlns="http://www.w3.org/2000/svg">
<g clip-path="url(#clip0_619_55097)">
<rect width="718" height="713" fill="#121180"/>
<path opacity="0.6" fill-rule="evenodd" clip-rule="evenodd" d="M70.8984 -1H71.897V71H142.798V-1H143.797V71H214.698V-1H215.697V71H286.598V-1H287.597V71H358.498V-1H359.497V71H430.398V-1H431.397V71H502.299V-1H503.298V71H574.199V-1H575.198V71H646.099V-1H647.098V71H718V72H647.098V143H719V144H647.098V215H719V216H647.098V287H719V288H647.098V358H719V359H647.098V430H719V431H647.098V502H719V503H647.098V574H719V575H647.098V718H646.099V575H575.198V718H574.199V575H503.298V718H502.299V575H431.397V718H430.398V575H359.497V718H358.498V575H287.597V718H286.598V575H215.697V718H214.698V575H143.797V718H142.798V575H71.897V718H70.8984V575H0V574H70.8984V503H0V502H70.8984V431H0V430H70.8984V359H0V358H70.8984V288H0V287H70.8984V216H0V215H70.8984V144H0V143H70.8984V72H0V71H70.8984V-1ZM71.897 574H142.798V503H71.897V574ZM143.797 574H214.698V503H143.797V574ZM215.697 574H286.598V503H215.697V574ZM287.597 574H358.498V503H287.597V574ZM359.497 574H430.398V503H359.497V574ZM431.397 574H502.299V503H431.397V574ZM503.298 574H574.199V503H503.298V574ZM575.198 574H646.099V503H575.198V574ZM646.099 431V502H575.198V431H646.099ZM574.199 431V502H503.298V431H574.199ZM502.299 431V502H431.397V431H502.299ZM430.398 431V502H359.497V431H430.398ZM358.498 431V502H287.597V431H358.498ZM286.598 431V502H215.697V431H286.598ZM214.698 431V502H143.797V431H214.698ZM142.798 431V502H71.897V431H142.798ZM71.897 430H142.798V359H71.897V430ZM143.797 430H214.698V359H143.797V430ZM215.697 430H286.598V359H215.697V430ZM287.597 430H358.498V359H287.597V430ZM359.497 430H430.398V359H359.497V430ZM431.397 430H502.299V359H431.397V430ZM503.298 430H574.199V359H503.298V430ZM575.198 430H646.099V359H575.198V430ZM646.099 288V358H575.198V288H646.099ZM574.199 288V358H503.298V288H574.199ZM502.299 288V358H431.397V288H502.299ZM430.398 288V358H359.497V288H430.398ZM358.498 288V358H287.597V288H358.498ZM286.598 288V358H215.697V288H286.598ZM214.698 288V358H143.797V288H214.698ZM142.798 288V358H71.897V288H142.798ZM71.897 287H142.798V216H71.897V287ZM143.797 287H214.698V216H143.797V287ZM215.697 287H286.598V216H215.697V287ZM287.597 287H358.498V216H287.597V287ZM359.497 287H430.398V216H359.497V287ZM431.397 287H502.299V216H431.397V287ZM503.298 287H574.199V216H503.298V287ZM575.198 287H646.099V216H575.198V287ZM646.099 144V215H575.198V144H646.099ZM574.199 144V215H503.298V144H574.199ZM502.299 144V215H431.397V144H502.299ZM430.398 144V215H359.497V144H430.398ZM358.498 144V215H287.597V144H358.498ZM286.598 144V215H215.697V144H286.598ZM214.698 144V215H143.797V144H214.698ZM142.798 144V215H71.897V144H142.798ZM71.897 143H142.798V72H71.897V143ZM143.797 143H214.698V72H143.797V143ZM215.697 143H286.598V72H215.697V143ZM287.597 143H358.498V72H287.597V143ZM359.497 143H430.398V72H359.497V143ZM431.397 143H502.299V72H431.397V143ZM503.298 143H574.199V72H503.298V143ZM575.198 143H646.099V72H575.198V143Z" fill="url(#paint0_linear_619_55097)"/>
<rect x="435" width="284" height="701" fill="url(#paint1_linear_619_55097)"/>
<g opacity="0.1">
<rect x="214.3" y="429.899" width="145.798" height="0.998611" fill="url(#paint2_linear_619_55097)"/>
<rect x="286.699" y="503.297" width="145.797" height="0.998613" transform="rotate(-90 286.699 503.297)" fill="url(#paint3_linear_619_55097)"/>
</g>
<g opacity="0.25">
<rect x="142.3" y="287" width="145.798" height="0.998611" fill="url(#paint4_linear_619_55097)"/>
<rect x="214.7" y="360.397" width="145.797" height="0.998613" transform="rotate(-90 214.7 360.397)" fill="url(#paint5_linear_619_55097)"/>
</g>
<g opacity="0.4">
<rect x="214.1" y="142.899" width="145.798" height="0.998611" fill="url(#paint6_linear_619_55097)"/>
<rect x="286.5" y="216.297" width="145.797" height="0.998613" transform="rotate(-90 286.5 216.297)" fill="url(#paint7_linear_619_55097)"/>
</g>
<g opacity="0.7">
<rect width="71" height="71" fill="#361793"/>
<path d="M72 72H143L72 143V72Z" fill="#4F25B7"/>
<path d="M1.90737e-07 144C31.0624 144 71 144 71 144C71 183.212 71 182.606 71 215C31.7878 215 1.90737e-07 183.212 1.90737e-07 144Z" fill="#4F25B7"/>
<path d="M143 359C111.938 359 72 359 72 359C72 398.212 72 397.606 72 430C111.212 430 143 398.212 143 359Z" fill="#8C4BFF"/>
<path fill-rule="evenodd" clip-rule="evenodd" d="M0 359H35.5C15.8939 359 0 343.106 0 323.5V359ZM35.5 288H0V323.5C0 303.894 15.8939 288 35.5 288ZM71 323.5V288H35.5C55.1061 288 71 303.894 71 323.5ZM71 323.5V359H35.5C55.1061 359 71 343.106 71 323.5ZM35.5009 309.3C43.3433 309.3 49.7009 315.657 49.7009 323.5C49.7009 331.342 43.3433 337.7 35.5009 337.7C27.6584 337.7 21.3009 331.342 21.3009 323.5C21.3009 315.657 27.6584 309.3 35.5009 309.3Z" fill="#6C36DB"/>
<path fill-rule="evenodd" clip-rule="evenodd" d="M72 287H143V251.5H107.5V216H72V287Z" fill="#6C36DB"/>
</g>
</g>
<defs>
<linearGradient id="paint0_linear_619_55097" x1="720" y1="-1" x2="720" y2="612.5" gradientUnits="userSpaceOnUse">
<stop stop-color="#2D2194" stop-opacity="0"/>
<stop offset="0.307292" stop-color="#483BBA"/>
<stop offset="0.601696" stop-color="#2A2394"/>
<stop offset="1" stop-color="#0C0B6F" stop-opacity="0"/>
</linearGradient>
<linearGradient id="paint1_linear_619_55097" x1="663.5" y1="338.5" x2="435" y2="338.5" gradientUnits="userSpaceOnUse">
<stop stop-color="#121180"/>
<stop offset="1" stop-color="#121180" stop-opacity="0"/>
</linearGradient>
<linearGradient id="paint2_linear_619_55097" x1="360.097" y1="430.9" x2="217.296" y2="429.901" gradientUnits="userSpaceOnUse">
<stop stop-color="#100F79"/>
<stop offset="0.523026" stop-color="#8C4BFF"/>
<stop offset="1" stop-color="#110F79"/>
</linearGradient>
<linearGradient id="paint3_linear_619_55097" x1="432.496" y1="504.298" x2="289.695" y2="503.299" gradientUnits="userSpaceOnUse">
<stop stop-color="#100F79"/>
<stop offset="0.523026" stop-color="#8C4BFF"/>
<stop offset="1" stop-color="#110F79"/>
</linearGradient>
<linearGradient id="paint4_linear_619_55097" x1="288.097" y1="288" x2="145.296" y2="287.001" gradientUnits="userSpaceOnUse">
<stop stop-color="#100F79"/>
<stop offset="0.523026" stop-color="#8C4BFF"/>
<stop offset="1" stop-color="#110F79"/>
</linearGradient>
<linearGradient id="paint5_linear_619_55097" x1="360.497" y1="361.398" x2="217.696" y2="360.399" gradientUnits="userSpaceOnUse">
<stop stop-color="#100F79"/>
<stop offset="0.523026" stop-color="#8C4BFF"/>
<stop offset="1" stop-color="#110F79"/>
</linearGradient>
<linearGradient id="paint6_linear_619_55097" x1="359.898" y1="143.9" x2="217.096" y2="142.901" gradientUnits="userSpaceOnUse">
<stop stop-color="#100F79"/>
<stop offset="0.523026" stop-color="#8C4BFF"/>
<stop offset="1" stop-color="#110F79"/>
</linearGradient>
<linearGradient id="paint7_linear_619_55097" x1="432.297" y1="217.298" x2="289.495" y2="216.299" gradientUnits="userSpaceOnUse">
<stop stop-color="#100F79"/>
<stop offset="0.523026" stop-color="#8C4BFF"/>
<stop offset="1" stop-color="#110F79"/>
</linearGradient>
<clipPath id="clip0_619_55097">
<rect width="718" height="713" fill="white"/>
</clipPath>
</defs>
</svg>
